# xmcd
#
# Track frame offsets: 
#        150
#        10163
#        23926
#        34646
#        46235
#        60608
#        76070
#        87427
#        97195
#        111984
#
# Disc length: 1639 seconds
#
# Revision: 0
# Processed by: cddbd v1.5.2PL0 Copyright (c) Steve Scherf et al.
# Submitted via: ExactAudioCopy v0.99pb2
#
DISCID=7506650a
DTITLE=Ted Hawkins - Essential Recordings: Cold and Bitter Tears
DYEAR=2009
DGENRE=Country
TTITLE0=Cold and Bitter Tears
TTITLE1=Bring It on Home Daddy
TTITLE2=If You Love Me
TTITLE3=Watch Your Step
TTITLE4=The Lost Ones
TTITLE5=My Last Goodbye
TTITLE6=Peace and Happiness
TTITLE7=Sorry You're Sick
TTITLE8=Stay Close to Me
TTITLE9=Bad Dog
EXTD=
EXTT0=
EXTT1=
EXTT2=
EXTT3=
EXTT4=
EXTT5=
EXTT6=
EXTT7=
EXTT8=
EXTT9=
PLAYORDER=
